<svg width="849" height="1271" viewBox="0 0 849 1271" fill="none" preserveAspectRatio="xMidYMid meet" xmlns="http://www.w3.org/2000/svg">
    <g clip-path="url(#clip0_215_128)">
        <rect x="509.323" y="676" width="128" height="128" transform="rotate(24.8576 509.323 676)" fill="white"
              fill-opacity="0.22"/>
        <rect x="654.5" y="743.258" width="128" height="128" transform="rotate(24.8576 654.5 743.258)" fill="white"
              fill-opacity="0.22"/>
        <rect x="799.677" y="810.516" width="128" height="128" transform="rotate(24.8576 799.677 810.516)" fill="white"
              fill-opacity="0.22"/>
        <rect x="442.065" y="821.177" width="128" height="128" transform="rotate(24.8576 442.065 821.177)" fill="white"
              fill-opacity="0.22"/>
        <rect x="587.242" y="888.435" width="128" height="128" transform="rotate(24.8576 587.242 888.435)" fill="white"
              fill-opacity="0.22"/>
        <rect x="732.418" y="955.693" width="128" height="128" transform="rotate(24.8576 732.418 955.693)" fill="white"
              fill-opacity="0.22"/>
        <rect x="374.807" y="966.354" width="128" height="128" transform="rotate(24.8576 374.807 966.354)" fill="white"
              fill-opacity="0.22"/>
        <rect x="519.983" y="1033.61" width="128" height="128" transform="rotate(24.8576 519.983 1033.61)" fill="white"
              fill-opacity="0.22"/>
        <rect x="665.16" y="1100.87" width="128" height="128" transform="rotate(24.8576 665.16 1100.87)" fill="white"
              fill-opacity="0.22"/>
        <rect x="382.094" width="128" height="128" transform="rotate(59.2701 382.094 0)" fill="#88C6FF"
              fill-opacity="0.22"/>
        <rect x="463.853" y="137.534" width="128" height="128" transform="rotate(59.2701 463.853 137.534)"
              fill="#88C6FF" fill-opacity="0.22"/>
        <rect x="545.612" y="275.067" width="128" height="128" transform="rotate(59.2701 545.612 275.067)"
              fill="#88C6FF" fill-opacity="0.22"/>
        <rect x="244.561" y="81.7588" width="128" height="128" transform="rotate(59.2701 244.561 81.7588)"
              fill="#88C6FF" fill-opacity="0.22"/>
        <rect x="326.319" y="219.292" width="128" height="128" transform="rotate(59.2701 326.319 219.292)"
              fill="#88C6FF" fill-opacity="0.22"/>
        <rect x="408.078" y="356.826" width="128" height="128" transform="rotate(59.2701 408.078 356.826)"
              fill="#88C6FF" fill-opacity="0.22"/>
        <rect x="107.027" y="163.517" width="128" height="128" transform="rotate(59.2701 107.027 163.517)"
              fill="#88C6FF" fill-opacity="0.22"/>
        <rect x="188.786" y="301.051" width="128" height="128" transform="rotate(59.2701 188.786 301.051)"
              fill="#88C6FF" fill-opacity="0.22"/>
        <rect x="270.544" y="438.585" width="128" height="128" transform="rotate(59.2701 270.544 438.585)"
              fill="#88C6FF" fill-opacity="0.22"/>
    </g>
    <defs>
        <clipPath id="clip0_215_128">
            <rect width="849" height="1271" fill="white"/>
        </clipPath>
    </defs>
</svg>
