<svg xmlns="http://www.w3.org/2000/svg" xmlns:xlink="http://www.w3.org/1999/xlink" aria-hidden="true" role="img" width="1em" height="1em" preserveAspectRatio="xMidYMid meet" viewBox="0 0 24 24"><path d="M12 0C5.373 0 0 5.372 0 12c0 6.627 5.373 12 12 12s12-5.373 12-12c0-6.628-5.373-12-12-12zm0 22.46c-1.885 0-3.414-1.26-3.414-2.814h6.828c0 1.553-1.528 2.813-3.414 2.813zm5.64-3.745H6.36v-2.046h11.28v2.046zm-.04-3.098H6.391c-.037-.043-.075-.086-.111-.13c-1.155-1.401-1.427-2.133-1.69-2.879c-.005-.025 1.4.287 2.395.511c0 0 .513.119 1.262.255c-.72-.843-1.147-1.915-1.147-3.01c0-2.406 1.845-4.508 1.18-6.207c.648.053 1.34 1.367 1.387 3.422c.689-.951.977-2.69.977-3.755c0-1.103.727-2.385 1.454-2.429c-.648 1.069.168 1.984.894 4.256c.272.854.237 2.29.447 3.201c.07-1.892.395-4.652 1.595-5.605c-.529 1.2.079 2.702.494 3.424c.671 1.164 1.078 2.047 1.078 3.716a4.642 4.642 0 0 1-1.11 2.996c.792-.149 1.34-.283 1.34-.283l2.573-.502s-.374 1.538-1.81 3.019z" fill="currentColor"/></svg>